<svg width="108" height="53" viewBox="0 0 108 53" fill="none" xmlns="http://www.w3.org/2000/svg">
<g opacity="0.975">
<path fill-rule="evenodd" clip-rule="evenodd" d="M35.3882 10.9426L32.1528 7.38287H29.2508L12.8446 24.1267L12.0582 24.9177L23.1989 22.6764L30.6698 15.1615L37.3543 21.8854L47.0533 22.9401L46.5291 22.4127L41.1552 16.4799L41.0242 6.45999H35.5193L35.3882 10.9426Z" fill="white"/>
<path d="M31.3252 6.45999L30.8009 5.80078L29.2508 7.38287H32.1528L31.3252 6.45999Z" fill="white"/>
</g>
<path opacity="0.961" fill-rule="evenodd" clip-rule="evenodd" d="M6.68445 33.3563V27.028C6.68445 27.028 18.3395 24.5778 24.2476 23.7319C33.4231 22.5082 42.5106 22.9477 51.5097 25.0503C52.5913 25.3689 53.6398 25.7644 54.6553 26.2369C38.1318 24.9449 6.68445 33.3563 6.68445 33.3563Z" fill="white"/>
<path opacity="0.952" fill-rule="evenodd" clip-rule="evenodd" d="M94.5 28.6094C96.1601 28.6094 97.8205 28.6094 99.4806 28.6094C99.5435 29.4212 99.4562 30.2122 99.2184 30.9825C97.6553 31.2451 96.0825 31.333 94.5 31.2462C94.5 30.3673 94.5 29.4883 94.5 28.6094Z" fill="white"/>
<path opacity="0.944" fill-rule="evenodd" clip-rule="evenodd" d="M16.9077 32.3008H23.199V39.9475H23.9854V42.848H14.1554L14.1553 40.2112L15.3349 39.9475L16.9077 32.3008ZM19.5291 35.2013L19.7913 39.8157H18.7427L19.5291 35.2013Z" fill="white"/>
<path opacity="0.954" fill-rule="evenodd" clip-rule="evenodd" d="M26.869 32.3008L33.4224 32.4326H33.8155V42.7162L33.4224 42.7162H26.869L26.2136 42.7162V32.3008H26.869ZM29.4904 35.2013C29.8399 35.2013 30.1894 35.2013 30.5389 35.2013C30.5389 36.7834 30.5389 38.3655 30.5389 39.9475C30.1894 39.9475 29.8399 39.9475 29.4904 39.9475C29.4904 38.3655 29.4904 36.7834 29.4904 35.2013Z" fill="white"/>
<path opacity="0.959" fill-rule="evenodd" clip-rule="evenodd" d="M37.0922 32.3015C38.4029 32.3015 39.7136 32.3015 41.0243 32.3015C41.2416 33.5286 41.4602 34.759 41.6796 35.993C41.969 34.8447 42.2749 33.7021 42.5971 32.5652C43.8082 32.3033 45.0313 32.2154 46.267 32.3015C46.6453 35.8135 46.995 39.3291 47.3155 42.8488C46.267 42.8488 45.2185 42.8488 44.1699 42.8488C44.3269 36.229 43.9772 36.229 43.1214 42.8488C42.1601 42.8488 41.1991 42.8488 40.2379 42.8488C39.6365 37.9683 39.3744 37.9683 39.4515 42.8488C38.3156 42.8488 37.1795 42.8488 36.0437 42.8488C36.5226 39.3471 36.8721 35.8314 37.0922 32.3015Z" fill="white"/>
<path opacity="0.915" fill-rule="evenodd" clip-rule="evenodd" d="M54.9174 32.3008C57.1018 32.3008 59.2864 32.3008 61.4708 32.3008C61.5505 33.2805 61.3756 34.2032 60.9465 35.0694C59.9892 35.201 59.0282 35.2448 58.063 35.2013C58.063 36.8712 58.063 38.5413 58.063 40.2112C59.1989 40.2112 60.3349 40.2112 61.4708 40.2112C61.4708 41.0901 61.4708 41.9692 61.4708 42.848C59.3719 42.8918 57.2748 42.848 55.1795 42.7162C55.0485 42.5844 54.9174 42.4525 54.7863 42.3207C54.5735 38.9609 54.617 35.6208 54.9174 32.3008Z" fill="white"/>
<path opacity="0.94" fill-rule="evenodd" clip-rule="evenodd" d="M63.0437 32.3008C65.5778 32.3008 68.1116 32.3008 70.6456 32.3008C70.7374 33.238 70.5628 34.117 70.1214 34.9376C69.6244 35.1923 69.1001 35.2801 68.5486 35.2013C68.5486 37.7503 68.5486 40.299 68.5486 42.848C67.4127 42.848 66.2766 42.848 65.1408 42.848C65.1408 40.299 65.1408 37.7503 65.1408 35.2013C64.4417 35.2013 63.7428 35.2013 63.0437 35.2013C63.0437 34.2344 63.0437 33.2676 63.0437 32.3008Z" fill="white"/>
<path opacity="0.956" fill-rule="evenodd" clip-rule="evenodd" d="M72.4806 32.3016C74.9287 32.2577 77.3755 32.3017 79.8204 32.4335C80.0637 32.5357 80.2385 32.7115 80.3447 32.9608C80.7321 34.9569 80.6883 36.9345 80.2136 38.8937C80.0825 39.0255 79.9515 39.1573 79.8204 39.2892C78.5126 39.4208 77.2019 39.4648 75.8884 39.421C75.8884 40.5635 75.8884 41.7063 75.8884 42.8489C74.7525 42.8489 73.6164 42.8489 72.4806 42.8489C72.4806 39.3332 72.4806 35.8173 72.4806 32.3016ZM75.8884 35.2021C76.2378 35.2021 76.5875 35.2021 76.9369 35.2021C76.9369 35.7295 76.9369 36.2568 76.9369 36.7842C76.5875 36.7842 76.2378 36.7842 75.8884 36.7842C75.8884 36.2568 75.8884 35.7295 75.8884 35.2021Z" fill="white"/>
<path opacity="0.944" fill-rule="evenodd" clip-rule="evenodd" d="M83.2282 32.3016C85.4144 32.2577 87.5988 32.3017 89.7816 32.4334C89.9934 32.5145 90.1682 32.6464 90.3059 32.829C90.606 35.8929 90.6498 38.9693 90.4369 42.0578C90.3389 42.2993 90.2078 42.5193 90.0437 42.717C87.7718 42.8929 85.5001 42.8929 83.2282 42.717C83.0971 42.5852 82.9661 42.4533 82.835 42.3215C82.6601 39.2451 82.6601 36.169 82.835 33.0926C82.9695 32.8219 83.1005 32.5583 83.2282 32.3016ZM86.1117 35.2021C86.4611 35.2021 86.8108 35.2021 87.1602 35.2021C87.1602 36.7842 87.1602 38.3663 87.1602 39.9484C86.8108 39.9484 86.4611 39.9484 86.1117 39.9484C86.1117 38.3663 86.1117 36.7842 86.1117 35.2021Z" fill="white"/>
<path opacity="0.947" fill-rule="evenodd" clip-rule="evenodd" d="M92.9272 32.3008C94.063 32.3008 95.1991 32.3008 96.335 32.3008C96.2173 36.7683 96.5667 36.7683 97.3835 32.3008C98.5193 32.3008 99.6554 32.3008 100.791 32.3008C100.791 35.8164 100.791 39.3324 100.791 42.848C99.6554 42.848 98.5193 42.848 97.3835 42.848C97.4721 41.6124 97.5159 40.3818 97.5146 39.1565C96.8815 40.3196 96.4883 41.5502 96.335 42.848C95.1991 42.848 94.063 42.848 92.9272 42.848C92.9272 39.3324 92.9272 35.8164 92.9272 32.3008Z" fill="white"/>
<path d="M16.4472 49.4141C15.8446 49.4141 15.3678 49.2224 15.0167 48.8391C14.6657 48.4539 14.4902 47.9289 14.4902 47.2642C14.4902 46.6033 14.6666 46.0802 15.0196 45.695C15.3725 45.3098 15.8484 45.1172 16.4472 45.1172C17.0461 45.1172 17.521 45.3098 17.8721 45.695C18.2231 46.0802 18.3987 46.6033 18.3987 47.2642C18.3987 47.6306 18.3433 47.9573 18.2325 48.2443C18.1236 48.5294 17.9659 48.7607 17.7594 48.9383L18.2635 49.7087H17.4413L17.1597 49.3065C16.9419 49.3782 16.7044 49.4141 16.4472 49.4141ZM16.45 48.6635C16.542 48.6635 16.6397 48.6512 16.7429 48.6267L16.2811 47.9469H17.0527L17.2413 48.1763C17.4347 47.9667 17.5314 47.6627 17.5314 47.2642C17.5314 46.8375 17.4328 46.4985 17.2357 46.2474C17.0386 45.9943 16.7758 45.8678 16.4472 45.8678C16.1168 45.8678 15.8531 45.9943 15.656 46.2474C15.4588 46.4985 15.3603 46.8375 15.3603 47.2642C15.3603 47.6948 15.4588 48.0356 15.656 48.2868C15.8531 48.5379 16.1178 48.6635 16.45 48.6635Z" fill="white"/>
<path d="M20.5871 45.222V47.8109C20.5871 48.0715 20.6613 48.2773 20.8096 48.4284C20.9598 48.5795 21.1691 48.655 21.4375 48.655C21.7079 48.655 21.9172 48.5795 22.0655 48.4284C22.2157 48.2773 22.2908 48.0715 22.2908 47.8109V45.222H23.1412V47.8987C23.1412 48.3538 22.9863 48.7201 22.6765 48.9977C22.3687 49.2753 21.9557 49.4141 21.4375 49.4141C20.9213 49.4141 20.5083 49.2753 20.1985 48.9977C19.8907 48.7201 19.7367 48.3538 19.7367 47.8987V45.222H20.5871Z" fill="white"/>
<path d="M25.507 45.9131V47.1708H26.2533C26.4673 47.1708 26.6334 47.116 26.7517 47.0065C26.8718 46.8951 26.9319 46.7412 26.9319 46.5448C26.9319 46.3503 26.87 46.1964 26.7461 46.0831C26.6222 45.9698 26.4551 45.9131 26.2448 45.9131H25.507ZM25.507 47.8279V49.3093H24.6566V45.222H26.3631C26.8099 45.222 27.1619 45.3391 27.4191 45.5732C27.6762 45.8074 27.8048 46.1275 27.8048 46.5334C27.8048 46.7978 27.7391 47.0348 27.6077 47.2444C27.4782 47.4521 27.298 47.6022 27.0671 47.6948L27.9231 49.3093H26.9601L26.2026 47.8279H25.507Z" fill="white"/>
<path d="M30.0356 49.3093H29.1851V45.222H30.0356V49.3093Z" fill="white"/>
<path d="M34.2036 48.5644V49.3093H31.5454V45.222H32.3958V48.5644H34.2036Z" fill="white"/>
<path d="M36.3499 49.3093H35.4994V45.222H36.3499V49.3093Z" fill="white"/>
<path d="M37.6767 48.1735H38.4989C38.5177 48.3396 38.604 48.4718 38.758 48.57C38.9119 48.6682 39.109 48.7173 39.3493 48.7173C39.5708 48.7173 39.752 48.6692 39.8928 48.5729C40.0336 48.4747 40.104 48.3481 40.104 48.1933C40.104 48.063 40.0495 47.9573 39.9407 47.8761C39.8318 47.7949 39.6525 47.7278 39.4028 47.6749L38.8734 47.5616C38.1375 47.4068 37.7696 47.0178 37.7696 46.3947C37.7696 46.0094 37.9113 45.7007 38.1948 45.4684C38.4783 45.2343 38.8546 45.1172 39.324 45.1172C39.7708 45.1172 40.1378 45.2314 40.425 45.4599C40.7141 45.6884 40.8652 45.9849 40.8784 46.3493H40.0786C40.058 46.1869 39.9791 46.0566 39.8421 45.9584C39.7051 45.8603 39.5342 45.8112 39.3296 45.8112C39.1156 45.8112 38.9438 45.8574 38.8143 45.9499C38.6866 46.0425 38.6228 46.1662 38.6228 46.321C38.6228 46.4475 38.6744 46.5495 38.7777 46.6269C38.8828 46.7043 39.0546 46.7685 39.293 46.8195L39.783 46.9243C40.1903 47.0112 40.4869 47.1472 40.6728 47.3322C40.8586 47.5173 40.9516 47.7684 40.9516 48.0857C40.9516 48.4973 40.8042 48.8221 40.5095 49.06C40.2166 49.2961 39.8149 49.4141 39.3043 49.4141C38.8199 49.4141 38.4313 49.3027 38.1385 49.0799C37.8456 48.8571 37.6917 48.5549 37.6767 48.1735Z" fill="white"/>
<path d="M45.8123 49.3093H44.9619V47.6013H43.1316V49.3093H42.2812V45.222H43.1316V46.8705H44.9619V45.222H45.8123V49.3093Z" fill="white"/>
<path d="M53.636 49.3093H52.8475V46.5759H52.8025L51.769 49.0742H51.203L50.1668 46.5759H50.1217V49.3093H49.3333V45.222H50.3357L51.4593 47.9695H51.51L52.6363 45.222H53.636V49.3093Z" fill="white"/>
<path d="M57.7562 49.3093L57.4492 48.3349H56.0216L55.709 49.3093H54.8558L56.2666 45.222H57.2662L58.677 49.3093H57.7562ZM56.7143 46.0717L56.2046 47.6749H57.269L56.765 46.0717H56.7143Z" fill="white"/>
<path d="M63.4251 49.3093H62.5747V47.6013H60.7444V49.3093H59.894V45.222H60.7444V46.8705H62.5747V45.222H63.4251V49.3093Z" fill="white"/>
<path d="M64.7519 48.1735H65.5742C65.5929 48.3396 65.6793 48.4718 65.8332 48.57C65.9872 48.6682 66.1843 48.7173 66.4246 48.7173C66.6461 48.7173 66.8272 48.6692 66.968 48.5729C67.1088 48.4747 67.1792 48.3481 67.1792 48.1933C67.1792 48.063 67.1248 47.9573 67.0159 47.8761C66.907 47.7949 66.7278 47.7278 66.4781 47.6749L65.9487 47.5616C65.2128 47.4068 64.8448 47.0178 64.8448 46.3947C64.8448 46.0094 64.9866 45.7007 65.2701 45.4684C65.5535 45.2343 65.9299 45.1172 66.3992 45.1172C66.846 45.1172 67.213 45.2314 67.5003 45.4599C67.7894 45.6884 67.9405 45.9849 67.9536 46.3493H67.1539C67.1332 46.1869 67.0544 46.0566 66.9174 45.9584C66.7803 45.8603 66.6095 45.8112 66.4049 45.8112C66.1909 45.8112 66.0191 45.8574 65.8895 45.9499C65.7619 46.0425 65.6981 46.1662 65.6981 46.321C65.6981 46.4475 65.7497 46.5495 65.8529 46.6269C65.9581 46.7043 66.1298 46.7685 66.3683 46.8195L66.8582 46.9243C67.2656 47.0112 67.5622 47.1472 67.7481 47.3322C67.9339 47.5173 68.0268 47.7684 68.0268 48.0857C68.0268 48.4973 67.8795 48.8221 67.5847 49.06C67.2919 49.2961 66.8901 49.4141 66.3795 49.4141C65.8952 49.4141 65.5066 49.3027 65.2137 49.0799C64.9209 48.8571 64.7669 48.5549 64.7519 48.1735Z" fill="white"/>
<path d="M70.2153 45.222V47.8109C70.2153 48.0715 70.2895 48.2773 70.4378 48.4284C70.5879 48.5795 70.7973 48.655 71.0657 48.655C71.336 48.655 71.5454 48.5795 71.6937 48.4284C71.8438 48.2773 71.9189 48.0715 71.9189 47.8109V45.222H72.7693V47.8987C72.7693 48.3538 72.6145 48.7201 72.3047 48.9977C71.9968 49.2753 71.5838 49.4141 71.0657 49.4141C70.5495 49.4141 70.1365 49.2753 69.8267 48.9977C69.5188 48.7201 69.3649 48.3538 69.3649 47.8987V45.222H70.2153Z" fill="white"/>
<path d="M76.943 48.5644V49.3093H74.2848V45.222H75.1352V48.5644H76.943Z" fill="white"/>
<path d="M79.9031 45.1172C80.5038 45.1172 80.9788 45.3098 81.3279 45.695C81.679 46.0802 81.8545 46.6033 81.8545 47.2642C81.8545 47.927 81.679 48.4511 81.3279 48.8363C80.9788 49.2215 80.5038 49.4141 79.9031 49.4141C79.3005 49.4141 78.8236 49.2215 78.4726 48.8363C78.1215 48.4511 77.946 47.927 77.946 47.2642C77.946 46.6033 78.1225 46.0802 78.4754 45.695C78.8283 45.3098 79.3042 45.1172 79.9031 45.1172ZM80.6915 46.2474C80.4963 45.9943 80.2335 45.8678 79.9031 45.8678C79.5727 45.8678 79.3089 45.9943 79.1118 46.2474C78.9147 46.4985 78.8161 46.8375 78.8161 47.2642C78.8161 47.691 78.9137 48.0309 79.109 48.2839C79.3061 48.537 79.5708 48.6635 79.9031 48.6635C80.2335 48.6635 80.4963 48.537 80.6915 48.2839C80.8886 48.0309 80.9872 47.691 80.9872 47.2642C80.9872 46.8375 80.8886 46.4985 80.6915 46.2474Z" fill="white"/>
<path d="M84.8793 49.3093H84.0289V45.9528H82.8096V45.222H86.0986V45.9528H84.8793V49.3093Z" fill="white"/>
<path d="M90.0329 48.5644V49.3093H87.3747V45.222H88.2251V48.5644H90.0329Z" fill="white"/>
<path d="M93.9391 49.3093L93.6322 48.3349H92.2045L91.8919 49.3093H91.0387L92.4495 45.222H93.4492L94.8599 49.3093H93.9391ZM92.8972 46.0717L92.3876 47.6749H93.452L92.9479 46.0717H92.8972Z" fill="white"/>
<path d="M96.9273 45.9131V47.1708H97.6735C97.8875 47.1708 98.0537 47.116 98.1719 47.0065C98.2921 46.8951 98.3522 46.7412 98.3522 46.5448C98.3522 46.3503 98.2902 46.1964 98.1663 46.0831C98.0424 45.9698 97.8753 45.9131 97.6651 45.9131H96.9273ZM96.9273 47.8279V49.3093H96.0769V45.222H97.7833C98.2301 45.222 98.5821 45.3391 98.8393 45.5732C99.0965 45.8074 99.2251 46.1275 99.2251 46.5334C99.2251 46.7978 99.1594 47.0348 99.028 47.2444C98.8985 47.4521 98.7182 47.6022 98.4873 47.6948L99.3434 49.3093H98.3803L97.6228 47.8279H96.9273Z" fill="white"/>
<path d="M101.456 49.3093H100.605V45.222H101.456V49.3093Z" fill="white"/>
</svg>
